<svg width="146" height="32" viewBox="0 0 146 32" fill="none" xmlns="http://www.w3.org/2000/svg">
<path d="M6.79545 25H0.75L8.60227 1.72727H16.0909L23.9432 25H17.8977L12.4318 7.59091H12.25L6.79545 25ZM5.98864 15.8409H18.625V20.1136H5.98864V15.8409ZM32.0739 1.72727V25H26.4489V1.72727H32.0739ZM35.6051 25V1.72727H51.4915V6.29545H41.2301V11.0682H50.4801V15.6477H41.2301V25H35.6051ZM53.9801 25V7.54545H59.3778V10.7273H59.5597C59.8778 9.57576 60.3968 8.7197 61.1165 8.15909C61.8362 7.59091 62.6733 7.30682 63.6278 7.30682C63.8854 7.30682 64.1506 7.32576 64.4233 7.36364C64.696 7.39394 64.9498 7.44318 65.1847 7.51136V12.3409C64.9195 12.25 64.571 12.178 64.1392 12.125C63.715 12.072 63.3362 12.0455 63.0028 12.0455C62.3438 12.0455 61.7491 12.1932 61.2188 12.4886C60.696 12.7765 60.2831 13.1818 59.9801 13.7045C59.6847 14.2197 59.5369 14.8258 59.5369 15.5227V25H53.9801ZM74.7017 25.3295C72.8759 25.3295 71.3002 24.9697 69.9744 24.25C68.6563 23.5227 67.6411 22.4886 66.929 21.1477C66.2244 19.7992 65.8722 18.197 65.8722 16.3409C65.8722 14.5379 66.2282 12.9621 66.9403 11.6136C67.6525 10.2576 68.6562 9.20454 69.9517 8.45454C71.2472 7.69697 72.7737 7.31818 74.5312 7.31818C75.7737 7.31818 76.91 7.51136 77.9403 7.89773C78.9706 8.28409 79.8608 8.85606 80.6108 9.61364C81.3608 10.3712 81.9441 11.3068 82.3608 12.4205C82.7775 13.5265 82.9858 14.7955 82.9858 16.2273V17.6136H67.8153V14.3864H77.8153C77.8078 13.7955 77.6676 13.2689 77.3949 12.8068C77.1222 12.3447 76.7472 11.9848 76.2699 11.7273C75.8002 11.4621 75.2585 11.3295 74.6449 11.3295C74.0237 11.3295 73.4669 11.4697 72.9744 11.75C72.482 12.0227 72.0919 12.3977 71.804 12.875C71.5161 13.3447 71.3646 13.8788 71.3494 14.4773V17.7614C71.3494 18.4735 71.4896 19.0985 71.7699 19.6364C72.0502 20.1667 72.4479 20.5795 72.9631 20.875C73.4782 21.1705 74.0919 21.3182 74.804 21.3182C75.2964 21.3182 75.7434 21.25 76.1449 21.1136C76.5464 20.9773 76.8911 20.7765 77.179 20.5114C77.4669 20.2462 77.6828 19.9205 77.8267 19.5341L82.929 19.6818C82.7169 20.8258 82.2509 21.822 81.5312 22.6705C80.8191 23.5114 79.8835 24.1667 78.7244 24.6364C77.5653 25.0985 76.2244 25.3295 74.7017 25.3295ZM85.8239 25V7.54545H91.3807V25H85.8239ZM88.608 5.51136C87.8277 5.51136 87.1572 5.25379 86.5966 4.73864C86.036 4.21591 85.7557 3.58712 85.7557 2.85227C85.7557 2.125 86.036 1.50379 86.5966 0.988636C87.1572 0.465908 87.8277 0.204544 88.608 0.204544C89.3958 0.204544 90.0663 0.465908 90.6193 0.988636C91.1799 1.50379 91.4602 2.125 91.4602 2.85227C91.4602 3.58712 91.1799 4.21591 90.6193 4.73864C90.0663 5.25379 89.3958 5.51136 88.608 5.51136ZM103.054 31.9091C101.395 31.9091 99.9744 31.678 98.7926 31.2159C97.6108 30.7538 96.6828 30.1212 96.0085 29.3182C95.3343 28.5152 94.929 27.6061 94.7926 26.5909L100.054 26.2955C100.152 26.6515 100.334 26.9621 100.599 27.2273C100.872 27.4924 101.224 27.697 101.656 27.8409C102.096 27.9848 102.611 28.0568 103.202 28.0568C104.134 28.0568 104.902 27.8295 105.509 27.375C106.122 26.928 106.429 26.1439 106.429 25.0227V21.9545H106.236C106.016 22.4924 105.683 22.9735 105.236 23.3977C104.789 23.822 104.232 24.1553 103.565 24.3977C102.906 24.6402 102.149 24.7614 101.293 24.7614C100.02 24.7614 98.8532 24.4659 97.7926 23.875C96.7396 23.2765 95.8949 22.3523 95.2585 21.1023C94.6297 19.8447 94.3153 18.2273 94.3153 16.25C94.3153 14.2121 94.6411 12.5341 95.2926 11.2159C95.9441 9.89015 96.7964 8.90909 97.8494 8.27273C98.91 7.63636 100.05 7.31818 101.27 7.31818C102.187 7.31818 102.971 7.47727 103.622 7.79545C104.281 8.10606 104.823 8.50758 105.247 9C105.671 9.49242 105.993 10.0038 106.213 10.5341H106.372V7.54545H111.906V25.0682C111.906 26.5455 111.535 27.7917 110.793 28.8068C110.05 29.822 109.012 30.5909 107.679 31.1136C106.346 31.6439 104.804 31.9091 103.054 31.9091ZM103.224 20.7159C103.899 20.7159 104.474 20.5379 104.952 20.1818C105.429 19.8258 105.796 19.3144 106.054 18.6477C106.312 17.9811 106.44 17.1818 106.44 16.25C106.44 15.303 106.312 14.4886 106.054 13.8068C105.804 13.1174 105.437 12.5871 104.952 12.2159C104.474 11.8447 103.899 11.6591 103.224 11.6591C102.535 11.6591 101.952 11.8485 101.474 12.2273C100.997 12.6061 100.634 13.1402 100.384 13.8295C100.141 14.5114 100.02 15.3182 100.02 16.25C100.02 17.1818 100.145 17.9811 100.395 18.6477C100.645 19.3144 101.005 19.8258 101.474 20.1818C101.952 20.5379 102.535 20.7159 103.224 20.7159ZM121.006 15.0455V25H115.449V1.72727H120.824V10.75H121.017C121.411 9.67424 122.055 8.83333 122.949 8.22727C123.85 7.62121 124.953 7.31818 126.256 7.31818C127.483 7.31818 128.551 7.59091 129.46 8.13636C130.369 8.67424 131.074 9.43561 131.574 10.4205C132.081 11.4053 132.331 12.5568 132.324 13.875V25H126.767V14.9659C126.775 13.9962 126.532 13.2386 126.04 12.6932C125.547 12.1477 124.854 11.875 123.96 11.875C123.377 11.875 122.862 12.0038 122.415 12.2614C121.975 12.5114 121.631 12.8712 121.381 13.3409C121.138 13.8106 121.013 14.3788 121.006 15.0455ZM145.645 7.54545V11.6364H134.634V7.54545H145.645ZM136.94 3.36364H142.497V19.5114C142.497 19.8523 142.55 20.1288 142.656 20.3409C142.77 20.5455 142.933 20.6932 143.145 20.7841C143.357 20.8674 143.611 20.9091 143.906 20.9091C144.118 20.9091 144.342 20.8902 144.577 20.8523C144.819 20.8068 145.001 20.7689 145.122 20.7386L145.963 24.75C145.698 24.8258 145.323 24.9205 144.838 25.0341C144.361 25.1477 143.789 25.2197 143.122 25.25C141.819 25.3106 140.702 25.1591 139.77 24.7955C138.846 24.4242 138.137 23.8485 137.645 23.0682C137.16 22.2879 136.925 21.3068 136.94 20.125V3.36364Z" fill="white"/>
</svg>
